<svg xmlns="http://www.w3.org/2000/svg" width="24" height="24" viewBox="0 0 24 24">
    <path d="M19040.824 6074.309a2.576 2.576 0 0 1-1.219-2.875l.375-1.488-2.832-2.651-3.145 3.554c-.039.043-.074.083-.115.123a2.761 2.761 0 0 1-3.342.441 2.89 2.89 0 0 1-1.164-1.213 2.839 2.839 0 0 1-.227-1.932v-.015l1.693-6.854-2.572-2.409a3.528 3.528 0 0 1-1.09-3.12l.123-.776a.167.167 0 0 1 0-.019 3.326 3.326 0 0 1 2.756-2.755.04.04 0 0 0 .018 0l.779-.123a3.525 3.525 0 0 1 3.117 1.091l2.41 2.568 6.859-1.69a2.829 2.829 0 0 1 1.936.22 2.869 2.869 0 0 1 1.219 1.163 2.76 2.76 0 0 1-.439 3.341c-.039.043-.082.083-.125.123l-3.551 3.142 2.65 2.831 1.49-.379a2.587 2.587 0 0 1 2.873 1.225 2.557 2.557 0 0 1-.4 3.07 1.18 1.18 0 0 1-.1.094.2.2 0 0 0-.031.028l-1.73 1.51c-.27.234-.537.484-.789.737s-.508.52-.742.791l-1.5 1.727c-.039.043-.082.09-.121.13h-.006a2.526 2.526 0 0 1-1.793.738 2.556 2.556 0 0 1-1.265-.348zm-2.775-9.274 3.9 3.655a1.258 1.258 0 0 1 .379 1.2l-.535 2.105a.311.311 0 0 0 .5.314c0-.007.01-.011.012-.018l1.512-1.727a17.88 17.88 0 0 1 1.746-1.748l1.727-1.51a.06.06 0 0 0 .018-.014.31.31 0 0 0-.312-.5l-2.1.531a1.244 1.244 0 0 1-1.205-.376l-3.656-3.9a1.354 1.354 0 0 1-.047-1.882.535.535 0 0 1 .055-.051l4.3-3.81c.012-.012.02-.019.025-.026a.574.574 0 0 0-.578-.921l-7.139 1.755a1.842 1.842 0 0 1-1.762-.56l-2.561-2.73a1.257 1.257 0 0 0-1.107-.4l-.783.123a1.059 1.059 0 0 0-.891.889l-.123.783a1.269 1.269 0 0 0 .4 1.109l2.734 2.561a1.846 1.846 0 0 1 .561 1.762l-1.764 7.14a.577.577 0 0 0 .926.574.184.184 0 0 0 .02-.025l3.82-4.309a.624.624 0 0 1 .047-.05 1.232 1.232 0 0 1 .883-.357 1.459 1.459 0 0 1 .998.413z" transform="translate(-19026.398 -6051.4)" style="fill:#30bfba"/>
</svg>
