<svg xmlns="http://www.w3.org/2000/svg" width="48" height="48" viewBox="0 0 48 48">
    <defs>
        <linearGradient id="tkcriro22a" x1=".809" y1=".102" x2=".118" y2=".846" gradientUnits="objectBoundingBox">
            <stop offset="0" stop-color="#d0ffff"/>
            <stop offset="1" stop-color="#caebeb"/>
        </linearGradient>
    </defs>
    <path data-name="패스 12698" d="m20107.252 10520.9 4.65-9.287a.88.88 0 0 0-.6-1.229l-9.047-2.425a1.729 1.729 0 0 1-.635-3.094l21.416-14.929a1.332 1.332 0 0 1 1.988 1.631l-4.818 9.337a.878.878 0 0 0 .59 1.24l8.459 2.269a1.729 1.729 0 0 1 .662 3.072l-20.65 15.017a1.335 1.335 0 0 1-2.02-1.6z" transform="translate(-20089.374 -10481.327)" style="fill:#00a5a0;opacity:.8"/>
    <path data-name="패스 12699" d="m18961.67 8414.131 2.086-10.172a.878.878 0 0 0-.891-1.034h-9.369a1.732 1.732 0 0 1-1.414-2.826l16.822-19.962a1.333 1.333 0 0 1 2.344 1.061l-2.238 10.268a.879.879 0 0 0 .887 1.045h8.762a1.732 1.732 0 0 1 1.436 2.8l-16.062 19.85a1.311 1.311 0 0 1-1.035.5 1.291 1.291 0 0 1-1.328-1.53z" transform="translate(-18944.878 -8373.656)" style="fill:#c0eaea"/>
    <path data-name="패스 12700" d="M18963 8415.257a.9.9 0 0 0 .723-.353l16.064-19.848a1.255 1.255 0 0 0 .164-1.359 1.4 1.4 0 0 0-1.289-.788h-8.762a1.323 1.323 0 0 1-1.031-.489 1.231 1.231 0 0 1-.246-1.041l2.238-10.268a.789.789 0 0 0-.156-.691 1.01 1.01 0 0 0-.775-.363.9.9 0 0 0-.713.338l-16.824 19.963a1.257 1.257 0 0 0-.189 1.365 1.4 1.4 0 0 0 1.3.8h9.369a1.317 1.317 0 0 1 1.027.48 1.256 1.256 0 0 1 .256 1.035l-2.086 10.172a.8.8 0 0 0 .156.688 1.026 1.026 0 0 0 .777.358m0 .4a1.292 1.292 0 0 1-1.326-1.525l2.086-10.172a.878.878 0 0 0-.891-1.034h-9.369a1.732 1.732 0 0 1-1.414-2.826l16.822-19.962a1.333 1.333 0 0 1 2.344 1.061l-2.238 10.268a.879.879 0 0 0 .887 1.045h8.762a1.732 1.732 0 0 1 1.436 2.8l-16.062 19.85a1.311 1.311 0 0 1-1.035.5z" transform="translate(-18944.878 -8373.656)" style="fill:url(#tkcriro22a)"/>
</svg>
