<svg xmlns="http://www.w3.org/2000/svg" width="116.569" height="116.569" viewBox="0 0 116.569 116.569">
    <defs>
        <filter id="ph7ldp10ya" x="0" y="0" width="116.569" height="116.569" filterUnits="userSpaceOnUse">
            <feOffset dy="10"/>
            <feGaussianBlur stdDeviation="10" result="blur"/>
            <feFlood flood-opacity=".102"/>
            <feComposite operator="in" in2="blur"/>
            <feComposite in="SourceGraphic"/>
        </filter>
    </defs>
    <g data-name="그룹 16370">
        <g style="filter:url(#ph7ldp10ya)">
            <path data-name="사각형 11027" d="M20 0a20 20 0 0 1 20 20 20 20 0 0 1-20 20H0V20A20 20 0 0 1 20 0z" transform="rotate(-45 73.284 -12.072)" style="fill:#30bfba"/>
        </g>
        <path data-name="패스 9" d="M13.869 12.444a3.062 3.062 0 0 0-.21-.737 3.627 3.627 0 0 0-1.415-1.692 3.1 3.1 0 0 0-3.282.023A2.923 2.923 0 0 0 7.88 11.23a3.417 3.417 0 0 0-.2.523 3.772 3.772 0 0 0 .22 2.857 1.41 1.41 0 0 0 .662.595.944.944 0 0 0 .86-.068.956.956 0 0 0 .32-.99 2.668 2.668 0 0 1 .032-1.381 1.066 1.066 0 0 1 .237-.393.884.884 0 0 1 .227-.159.924.924 0 0 1 .567-.1 1.09 1.09 0 0 1 .761.64 2.7 2.7 0 0 1 .206 1.024 15.867 15.867 0 0 1-.661 4.576c-.039.152-.079.3-.121.453-.032.116-.089.264-.018.377a.287.287 0 0 0 .131.1c.22.092.4-.048.547-.2a8.235 8.235 0 0 0 1.806-3.259 10.634 10.634 0 0 0 .346-1.363 6.16 6.16 0 0 0 .066-2.023" transform="translate(47.451 40.402)" style="fill:#fff"/>
        <path data-name="패스 10" d="M18 3.821a.381.381 0 0 0-.408-.373 1.923 1.923 0 0 0-.611.2A24.023 24.023 0 0 1 4.824 4.831c-.688-.1-1.387-.246-2.08-.357-.432-.069-.86-.172-1.3-.2a1.524 1.524 0 0 0-1.138.224 1.271 1.271 0 0 0-.142 1.461A3.249 3.249 0 0 0 1.4 7.193a2.935 2.935 0 0 0 1.62.571q2.309-.153 4.6-.46a29.914 29.914 0 0 0 7.793-1.723A9.705 9.705 0 0 0 17.7 4.266c.125-.1.3-.258.3-.445" transform="translate(49.539 41.965)" style="fill:#fff"/>
        <path data-name="패스 11" d="M9.757 1.588a1.5 1.5 0 1 0 3.007 0 .912.912 0 0 0-.081-.371c-.13-.282-.275-.418-.26-.757.019-.453-.546-.46-.852-.46a2.167 2.167 0 0 0-.986.2A1.545 1.545 0 0 0 10 .749a1.591 1.591 0 0 0-.239.8z" transform="translate(46.823 42.847)" style="fill:#fff"/>
    </g>
</svg>
