<svg xmlns="http://www.w3.org/2000/svg" width="24" height="24" viewBox="0 0 24 24">
    <path d="M19023.5 6076.249a4.5 4.5 0 0 1-4.5-4.5v-7.5a4.5 4.5 0 0 1 4.5-4.5h.75V6059a3 3 0 0 1 3-3h4.5a3 3 0 0 1 3 3v.753h.754a4.5 4.5 0 0 1 4.5 4.5v7.5a4.5 4.5 0 0 1-4.5 4.5zm-2.25-4.5a2.252 2.252 0 0 0 2.25 2.251h12a2.253 2.253 0 0 0 2.248-2.251v-2.249h-2.248v1.126a1.126 1.126 0 1 1-2.252 0v-1.126h-7.5v1.126a1.124 1.124 0 1 1-2.248 0v-1.126h-2.25zm0-7.5v3h16.5v-3a2.249 2.249 0 0 0-2.248-2.248h-12a2.249 2.249 0 0 0-2.248 2.249zm11.244-4.5V6059a.747.747 0 0 0-.744-.75h-4.5a.75.75 0 0 0-.748.75v.753z" transform="translate(-19017.502 -6054.125)" style="fill:#5e6666"/>
</svg>
