<svg xmlns="http://www.w3.org/2000/svg" width="32" height="32" viewBox="0 0 32 32">
    <path d="M18736.006 5748a5.007 5.007 0 0 1-5-5v-18a5.007 5.007 0 0 1 5-5h16a5.006 5.006 0 0 1 5 5v18a5.006 5.006 0 0 1-5 5zm-2.006-23v18a2 2 0 0 0 2 2h16a2 2 0 0 0 2-2v-18a2 2 0 0 0-2-2h-16a2 2 0 0 0-2 2zm14.5 16a1 1 0 0 1-1-1v-1a1 1 0 0 1 1-1h1a1 1 0 0 1 1 1v1a1 1 0 0 1-1 1zm-5 0a1 1 0 0 1-1-1v-1a1 1 0 0 1 1-1h1a1 1 0 0 1 1 1v1a1 1 0 0 1-1 1zm-5 0a1 1 0 0 1-1-1v-1a1 1 0 0 1 1-1h1a1 1 0 0 1 1 1v1a1 1 0 0 1-1 1zm10-5a1 1 0 0 1-1-1v-1a1 1 0 0 1 1-1h1a1 1 0 0 1 1 1v1a1 1 0 0 1-1 1zm-5 0a1 1 0 0 1-1-1v-1a1 1 0 0 1 1-1h1a1 1 0 0 1 1 1v1a1 1 0 0 1-1 1zm-5 0a1 1 0 0 1-1-1v-1a1 1 0 0 1 1-1h1a1 1 0 0 1 1 1v1a1 1 0 0 1-1 1z" transform="translate(-18727.998 -5718.001)" style="fill:#171a1a"/>
</svg>
