<svg xmlns="http://www.w3.org/2000/svg" width="20" height="20" viewBox="0 0 20 20">
    <path data-name="패스 4293" d="M16.25 6.375H5.625a1.25 1.25 0 0 0-1.25 1.25V17a1.25 1.25 0 0 0 1.25 1.25H16.25A1.25 1.25 0 0 0 17.5 17V7.625a1.25 1.25 0 0 0-1.25-1.25zM5.625 4.5A3.125 3.125 0 0 0 2.5 7.625V17a3.125 3.125 0 0 0 3.125 3.125H16.25A3.125 3.125 0 0 0 19.375 17V7.625A3.125 3.125 0 0 0 16.25 4.5z" transform="translate(-.938 -1.688)" style="fill-rule:evenodd;fill:#7d8585"/>
    <path data-name="합치기 89" d="M0 8.75V6.875h13.125V8.75zm10-5.937V.938a.937.937 0 1 1 1.875 0v1.875a.937.937 0 1 1-1.875 0zm-8.75 0V.938a.937.937 0 1 1 1.875 0v1.875a.937.937 0 1 1-1.875 0z" transform="translate(3.437 1.562)" style="fill:#7d8585"/>
</svg>
