<svg xmlns="http://www.w3.org/2000/svg" width="16" height="16" viewBox="0 0 16 16">
    <path data-name="패스 12526" d="m14.538 14.161-.034.032a5.407 5.407 0 0 1-7.545-.184L1.995 9.046A5.407 5.407 0 0 1 1.811 1.5l.032-.034.034-.032a3.127 3.127 0 0 1 4.329.158l.565.565a3.123 3.123 0 0 1 .081 4.409 3.383 3.383 0 0 0-.164.173l2.573 2.582c.052-.045.108-.1.173-.164a3.122 3.122 0 0 1 4.414.076l.565.565a3.127 3.127 0 0 1 .158 4.329zM2.866 2.5a1.673 1.673 0 0 1 2.312.118l.565.565a1.668 1.668 0 0 1 .079 2.353c-.472.472-1.144 1.251-.286 2.109l2.821 2.821c.858.858 1.637.186 2.109-.286a1.668 1.668 0 0 1 2.355.076l.565.565a1.673 1.673 0 0 1 .118 2.312 3.952 3.952 0 0 1-5.513-.159L3.024 8.016A3.952 3.952 0 0 1 2.866 2.5z" transform="translate(.134 -.139)" style="fill-rule:evenodd;fill:#7d8585"/>
</svg>
