<svg xmlns="http://www.w3.org/2000/svg" width="32" height="32" viewBox="0 0 32 32">
    <path d="M6634.352 6069a5.273 5.273 0 0 1-5.352-5.18v-11.04a5.275 5.275 0 0 1 5.352-5.18h.623a.437.437 0 0 0 .4-.235l.715-1.708a4.372 4.372 0 0 1 4.065-2.657h6.68a4.373 4.373 0 0 1 4.067 2.657l.715 1.708a.435.435 0 0 0 .4.235h.622a5.275 5.275 0 0 1 5.352 5.18v11.04a5.273 5.273 0 0 1-5.352 5.18zm-2.352-16.22v11.04a2.272 2.272 0 0 0 2.351 2.18h18.3a2.272 2.272 0 0 0 2.351-2.18v-11.04a2.272 2.272 0 0 0-2.351-2.179h-.622a3.414 3.414 0 0 1-3.172-2.077l-.717-1.709a1.4 1.4 0 0 0-1.3-.814h-6.68a1.4 1.4 0 0 0-1.3.814l-.715 1.708a3.415 3.415 0 0 1-3.171 2.079h-.623a2.272 2.272 0 0 0-2.351 2.178zm5.5 4.72a6 6 0 1 1 6 6 6 6 0 0 1-6-6zm3 0a3 3 0 1 0 3-3 3 3 0 0 0-3 3z" transform="translate(-6627.5 -6039.5)" style="fill:#171a1a"/>
</svg>
