<svg xmlns="http://www.w3.org/2000/svg" width="16" height="16" viewBox="0 0 16 16">
    <path d="M5959.824 5733h-9.148a2.637 2.637 0 0 1-2.676-2.59v-5.52a2.637 2.637 0 0 1 2.676-2.59h.312a.218.218 0 0 0 .2-.118l.357-.854a2.187 2.187 0 0 1 2.033-1.329h3.34a2.186 2.186 0 0 1 2.033 1.329l.358.854a.216.216 0 0 0 .2.118h.311a2.637 2.637 0 0 1 2.676 2.59v5.52a2.637 2.637 0 0 1-2.672 2.59zm-4.574-8.75a3 3 0 1 0 3 3 3 3 0 0 0-3-3zm0 4.5a1.5 1.5 0 1 1 1.5-1.5 1.5 1.5 0 0 1-1.5 1.5z" transform="translate(-5947.25 -5718.25)" style="fill:#7d8585"/>
</svg>
