<svg xmlns="http://www.w3.org/2000/svg" width="32" height="32" viewBox="0 0 32 32">
    <path d="M5971.649 5746h-18.3a5.274 5.274 0 0 1-5.352-5.18v-11.04a5.274 5.274 0 0 1 5.352-5.18h.624a.436.436 0 0 0 .4-.235l.715-1.707a4.371 4.371 0 0 1 4.065-2.658h6.681a4.372 4.372 0 0 1 4.066 2.658l.716 1.707a.434.434 0 0 0 .4.235h.621a5.274 5.274 0 0 1 5.352 5.18v11.04a5.274 5.274 0 0 1-5.34 5.18zm-9.148-17.5a6 6 0 1 0 6 6 6.007 6.007 0 0 0-6.001-6zm0 9a3 3 0 1 1 3-3 3 3 0 0 1-3.001 3z" transform="translate(-5946.5 -5716.5)" style="fill:#171a1a"/>
</svg>
