<svg xmlns="http://www.w3.org/2000/svg" width="32" height="32" viewBox="0 0 32 32">
    <path d="M18350.939 5660.562a1.477 1.477 0 0 1 0-2.105l2.953-2.954h-18.392a1.5 1.5 0 0 1 0-3h22.006a1.494 1.494 0 0 1 .82.244.356.356 0 0 1 .055.037.26.26 0 0 1 .061.046 1.367 1.367 0 0 1 .217.212 1.468 1.468 0 0 1 .336.949 1.5 1.5 0 0 1-.59 1.193l-5.367 5.368a1.477 1.477 0 0 1-2.1 0zm-15.439-12.062a1.465 1.465 0 0 1-.82-.244.608.608 0 0 1-.057-.042c-.023-.014-.041-.028-.061-.042a1.606 1.606 0 0 1-.215-.216 1.488 1.488 0 0 1-.342-.949 1.517 1.517 0 0 1 .59-1.2l5.367-5.363a1.489 1.489 0 0 1 2.111 2.1l-2.955 2.958h18.385a1.5 1.5 0 1 1 0 3z" transform="translate(-18330.5 -5634.499)" style="fill:#171a1a"/>
</svg>
