<svg xmlns="http://www.w3.org/2000/svg" width="132" height="48" viewBox="0 0 132 48">
    <path d="M113.98 8.313h-84A21.661 21.661 0 0 0 14.663 45.3a21.481 21.481 0 0 0 15.317 6.35h84a21.661 21.661 0 0 0 15.32-36.987 21.481 21.481 0 0 0-15.317-6.35" transform="translate(-5.98 -5.98)" style="fill:#6e298c"/>
    <path d="M108 0H24a24 24 0 1 0 0 48h84a24 24 0 0 0 0-48m0 45.667H24A21.68 21.68 0 0 1 2.333 24 21.679 21.679 0 0 1 24 2.334h84A21.68 21.68 0 0 1 129.667 24 21.68 21.68 0 0 1 108 45.668" transform="translate(0 -.001)" style="fill:#fff"/>
    <path d="M18414.951 5362.481a8.063 8.063 0 1 1 8.061 8.067 8.068 8.068 0 0 1-8.061-8.067zm7.76 6.1a.972.972 0 0 0 .582 0c0-1.416-.381-2.784.119-2.77a21.032 21.032 0 0 1 2.367.333c-.082-.41-.383-1.131.014-1.417.771-.632 1.57-1.263 2.307-1.86-1.033-.369-.453-1.285-.238-2.119-.416.083-.811.167-1.234.25-.516.083-.5-.368-.613-.771-.281.319-.564.653-.852.972-.131.146-.785.763-.668.132.148-.889.322-1.77.486-2.652-.3.153-.881.618-1.139.236-.277-.451-.582-.9-.861-1.354-.283.451-.59.9-.867 1.354-.248.382-.832-.083-1.133-.236.148.882.336 1.764.479 2.652.105.479-.379.166-.531 0-.336-.369-.645-.736-.98-1.1-.084.284-.105.917-.566.771a4.488 4.488 0 0 1-1.287-.271c.236.833.82 1.75-.23 2.118.648.534 1.313 1.069 1.979 1.6s.537.882.391 1.694a20.154 20.154 0 0 1 2.365-.333h.008c.5.004.102 1.515.102 2.773zm-20.25-7.352a5.935 5.935 0 0 1 5.934-5.93 5.806 5.806 0 0 1 3.549 1.181l-1.479 2a3.418 3.418 0 0 0-2.07-.681 3.45 3.45 0 0 0 0 6.9 3.348 3.348 0 0 0 2.014-.667l1.451 2.013a5.863 5.863 0 0 1-3.465 1.119 5.949 5.949 0 0 1-5.934-5.933zm-25.662-.014a5.933 5.933 0 0 1 5.93-5.937 5.85 5.85 0 0 1 3.557 1.188l-1.486 2a3.33 3.33 0 0 0-2.049-.688 3.444 3.444 0 1 0-.021 6.889 3.315 3.315 0 0 0 2.018-.653l1.455 2.02a5.935 5.935 0 0 1-9.4-4.817zm66.281.035a5.894 5.894 0 0 1 5.879-5.888h1.785a2.706 2.706 0 0 1 1.836.736 2.5 2.5 0 0 1 .617 1.617v9.4h-2.453v-.57a2.933 2.933 0 0 1-1.785.583 5.9 5.9 0 0 1-5.879-5.876zm2.48.013a3.427 3.427 0 0 0 3.422 3.416 2.492 2.492 0 0 0 1.781-.8v-6.012c-.564-.021-1.268-.021-1.781-.021a3.428 3.428 0 0 0-3.421 3.419zm-10.9 5.867v-2.464s1.719.013 3.75.013c1.2 0 1.352-.1 1.539-.466a.937.937 0 0 0-.271-.985 6.836 6.836 0 0 0-1.7-.8 8.682 8.682 0 0 1-2.6-1.312 3.429 3.429 0 0 1-.973-3.7l.07-.153c.631-1.236 1.4-1.9 3.771-1.9 2.025 0 3.746.02 3.746.02l-.02 2.451s-1.7-.021-3.727-.021c-1.2 0-1.357.119-1.537.485a.908.908 0 0 0 .268.98 6.489 6.489 0 0 0 1.7.8 8.739 8.739 0 0 1 2.605 1.313 3.414 3.414 0 0 1 .965 3.687l-.068.145c-.633 1.237-1.418 1.9-3.768 1.9zm-36.047-.035v-11.5a3.254 3.254 0 0 1 1.633.347 2.018 2.018 0 0 1 .854 1.437v9.713zm-12.053-5.929a5.937 5.937 0 0 1 5.936-5.935 5.715 5.715 0 0 1 1.8.284l.021-2.437a2.108 2.108 0 0 1 .693-1.68 2.873 2.873 0 0 1 1.783-.416v16.1h-2c-.584 0-1.6.014-2.3.014a5.946 5.946 0 0 1-5.932-5.928zm2.484 0a3.462 3.462 0 0 0 3.451 3.451c.529 0 1.227-.021 1.8-.021v-6.38a3.459 3.459 0 0 0-5.25 2.95zm76.5.014a5.886 5.886 0 0 1 9.4-4.713l-1.469 1.978a3.417 3.417 0 1 0-2.055 6.152 3.316 3.316 0 0 0 2-.646l1.434 2a5.871 5.871 0 0 1-9.316-4.77zm-11.361 0a5.885 5.885 0 0 1 5.877-5.881 6.3 6.3 0 0 1 1.785.265v-2.417a2.047 2.047 0 0 1 .682-1.667 2.827 2.827 0 0 1 1.77-.417v15.982h-1.965c-.57 0-1.566.021-2.271.021a5.9 5.9 0 0 1-5.877-5.884zm2.463 0a3.453 3.453 0 0 0 3.414 3.437c.523 0 1.238-.021 1.785-.021v-6.332a3.361 3.361 0 0 0-1.785-.5 3.422 3.422 0 0 0-3.414 3.418zm-28.785-6.353a8.367 8.367 0 0 0-2.367-1.062l-.115-.035v-1.667a2.359 2.359 0 0 0-4.717-.034v1.7l-.115.035a9.514 9.514 0 0 0-2.369 1.062l-.25.167v-2.978a5.086 5.086 0 0 1 10.172 0c0 .2 0 .916.014 2.7v.285z" transform="translate(-18359.961 -5335.916)" style="stroke:transparent;fill:#fff"/>
</svg>
