<svg xmlns="http://www.w3.org/2000/svg" width="120" height="120" viewBox="0 0 120 120">
    <defs>
        <linearGradient id="xvlfexkpnc" x1=".159" y1=".117" x2=".921" y2=".892" gradientUnits="objectBoundingBox">
            <stop offset="0" stop-color="#29c1a4"/>
            <stop offset="1" stop-color="#00b1c3"/>
        </linearGradient>
        <linearGradient id="0fmtf717sd" x1=".809" y1=".102" x2=".118" y2=".846" gradientUnits="objectBoundingBox">
            <stop offset="0" stop-color="#d0ffff"/>
            <stop offset="1" stop-color="#caebeb"/>
        </linearGradient>
        <filter id="60jp0lsz7b" x="15" y="6" width="116" height="116" filterUnits="userSpaceOnUse">
            <feOffset dx="2" dy="5"/>
            <feGaussianBlur stdDeviation="10" result="blur"/>
            <feFlood flood-color="#216b6e" flood-opacity=".2"/>
            <feComposite operator="in" in2="blur"/>
            <feComposite in="SourceGraphic"/>
        </filter>
        <filter id="1iel4bydue" x="40.542" y="61.625" width="22.155" height="15.409" filterUnits="userSpaceOnUse">
            <feOffset dx="-.5"/>
            <feGaussianBlur result="blur-2"/>
            <feFlood flood-color="#9de5e6"/>
            <feComposite operator="in" in2="blur-2"/>
            <feComposite in="SourceGraphic"/>
        </filter>
        <clipPath id="nhx2lhjbea">
            <path transform="translate(0 414.75)" style="opacity:0;fill:#fff" d="M0 0h120v120H0z"/>
        </clipPath>
    </defs>
    <g data-name="Ico / Info / complete" transform="translate(0 -414.75)" style="clip-path:url(#nhx2lhjbea)">
        <g data-name="그룹 15988">
            <g style="filter:url(#60jp0lsz7b)">
                <circle data-name="타원 187" cx="28" cy="28" r="28" transform="translate(43.001 445.751)" style="opacity:.8;fill:url(#xvlfexkpnc)"/>
            </g>
            <g data-name="그룹 16305" transform="translate(-8.079 8.711)">
                <path data-name="타원 75 - 윤곽선" d="M27.5.071A27.429 27.429 0 1 0 54.929 27.5 27.429 27.429 0 0 0 27.5.071m0-.571a28.007 28.007 0 0 1 10.9 53.8A28.007 28.007 0 0 1 16.6 1.7 27.825 27.825 0 0 1 27.5-.5z" transform="translate(31.578 446.539)" style="fill:url(#0fmtf717sd)"/>
                <circle data-name="타원 188" cx="27.541" cy="27.541" r="27.541" transform="translate(31.537 446.498)" style="fill:#c0eaea"/>
                <g style="filter:url(#1iel4bydue)">
                    <path data-name="패스 4330" d="M1037.091 463.915a1.83 1.83 0 0 1-1.3-.538l-6.246-6.246a1.836 1.836 0 0 1 2.6-2.6l4.948 4.948 10.439-10.439a1.836 1.836 0 1 1 2.6 2.6l-11.737 11.737a1.83 1.83 0 0 1-1.304.538z" transform="translate(-979.89 19.16)" style="fill:#fff"/>
                </g>
            </g>
        </g>
    </g>
</svg>
