<svg xmlns="http://www.w3.org/2000/svg" width="24" height="24" viewBox="0 0 24 24">
    <defs>
        <clipPath id="d1ehsonz3a">
            <rect data-name="사각형 11046" width="24" height="24" rx="12" style="fill:#3d4766"/>
        </clipPath>
    </defs>
    <g data-name="마스크 그룹 61" style="clip-path:url(#d1ehsonz3a)">
        <path data-name="사각형 10843" style="fill:#808aa9" d="M0 0h24v24H0z"/>
        <g data-name="CI">
            <path data-name="패스 9" d="M12.612 11.874a2.458 2.458 0 0 0-.169-.592 2.911 2.911 0 0 0-1.136-1.358 2.49 2.49 0 0 0-2.635.019 2.346 2.346 0 0 0-.868.958 2.743 2.743 0 0 0-.164.42 3.028 3.028 0 0 0 .18 2.293 1.132 1.132 0 0 0 .531.477.758.758 0 0 0 .691-.054.767.767 0 0 0 .257-.8 2.141 2.141 0 0 1 .026-1.109.856.856 0 0 1 .19-.315.71.71 0 0 1 .182-.128.741.741 0 0 1 .455-.077.875.875 0 0 1 .611.514 2.167 2.167 0 0 1 .165.822 12.736 12.736 0 0 1-.528 3.676 9.34 9.34 0 0 1-.1.364c-.025.093-.072.212-.014.3a.23.23 0 0 0 .105.084c.177.073.321-.038.439-.161a6.61 6.61 0 0 0 1.449-2.616 8.536 8.536 0 0 0 .278-1.094 4.944 4.944 0 0 0 .053-1.624" transform="translate(1.625 2.105)" style="fill:#dadef0"/>
            <path data-name="패스 10" d="M14.449 3.747a.305.305 0 0 0-.327-.3 1.544 1.544 0 0 0-.491.159 19.283 19.283 0 0 1-9.759.95c-.553-.082-1.113-.2-1.669-.287-.347-.056-.691-.138-1.042-.164a1.223 1.223 0 0 0-.914.18 1.02 1.02 0 0 0-.115 1.179 2.608 2.608 0 0 0 .993.99 2.356 2.356 0 0 0 1.3.458q1.853-.123 3.7-.369a24.012 24.012 0 0 0 6.251-1.383A7.79 7.79 0 0 0 14.2 4.1c.1-.079.244-.207.244-.357" transform="translate(4.781 4.565)" style="fill:#dadef0"/>
            <path data-name="패스 11" d="M9.757 1.275a1.207 1.207 0 1 0 2.413 0 .732.732 0 0 0-.065-.3C12 .751 11.885.642 11.9.37c.015-.364-.439-.37-.684-.37a1.739 1.739 0 0 0-.791.163A1.24 1.24 0 0 0 9.949.6a1.277 1.277 0 0 0-.192.645z" transform="translate(.676 5.953)" style="fill:#dadef0"/>
        </g>
    </g>
</svg>
