<svg xmlns="http://www.w3.org/2000/svg" width="20" height="20" viewBox="0 0 20 20">
    <path d="M19022.125 6073.5a3.124 3.124 0 0 1-3.125-3.125v-11.25a3.124 3.124 0 0 1 3.125-3.125h10a3.125 3.125 0 0 1 3.125 3.125v11.25a3.125 3.125 0 0 1-3.125 3.125zm-1.25-14.375v11.25a1.252 1.252 0 0 0 1.25 1.251h10a1.253 1.253 0 0 0 1.25-1.251v-11.25a1.251 1.251 0 0 0-1.25-1.249h-10a1.25 1.25 0 0 0-1.25 1.249zm2.814 10a.938.938 0 0 1 0-1.876h5.623a.938.938 0 0 1 0 1.876zm0-3.125a.938.938 0 0 1 0-1.876h2.5a.938.938 0 0 1 0 1.876z" transform="translate(-19017.125 -6054.75)" style="fill:#2f3333"/>
</svg>
