<svg xmlns="http://www.w3.org/2000/svg" width="24" height="24" viewBox="0 0 24 24">
    <path d="M18233.748 5674a3.757 3.757 0 0 1-3.75-3.75v-13.5a3.755 3.755 0 0 1 3.75-3.75H18245a3.751 3.751 0 0 1 3.748 3.75v1.873a1.125 1.125 0 1 1-2.25 0v-1.873a1.5 1.5 0 0 0-1.5-1.5h-11.254a1.5 1.5 0 0 0-1.5 1.5v13.5a1.5 1.5 0 0 0 1.5 1.5H18245a1.5 1.5 0 0 0 1.5-1.5v-1.124a1.125 1.125 0 1 1 2.25 0v1.124a3.753 3.753 0 0 1-3.75 3.75zm9.32-5.568a1.077 1.077 0 0 1 0-1.529l6.84-6.839a1.083 1.083 0 0 1 1.529 1.533l-6.832 6.835a1.087 1.087 0 0 1-.768.32 1.074 1.074 0 0 1-.769-.319zm-7.439-7.928a1.126 1.126 0 1 1 0-2.251h3.746a1.126 1.126 0 0 1 0 2.251z" transform="translate(-18227.75 -5651.5)" style="fill:#3db5ef"/>
</svg>
