<svg xmlns="http://www.w3.org/2000/svg" width="32" height="32" viewBox="0 0 32 32">
    <path d="M30.5 16A14.5 14.5 0 1 1 16 1.5 14.5 14.5 0 0 1 30.5 16z" style="fill:#fff"/>
    <path d="M16 30.5A14.5 14.5 0 1 0 1.5 16 14.5 14.5 0 0 0 16 30.5zm10.987-11.092a11.519 11.519 0 0 0-2.782-11.465 7.718 7.718 0 0 1-2.551 4.085A8.913 8.913 0 0 1 16 14a3.431 3.431 0 0 0-2.376.751 8.628 8.628 0 0 0-2.214 3.762 5.443 5.443 0 0 1-3.939 3.6 6.563 6.563 0 0 1-1.105.167 11.5 11.5 0 0 0 8.563 5.169c-.107-2.5.171-6.76 4.3-9.237a5.944 5.944 0 0 1 6.134-.083 6.908 6.908 0 0 1 1.624 1.279zm-1.518 3.12a3.469 3.469 0 0 0-1.582-1.784 2.948 2.948 0 0 0-3.116.042c-2.673 1.6-2.933 4.36-2.842 6.552a11.5 11.5 0 0 0 7.54-4.81zM6.767 19.2a4.335 4.335 0 0 1-1.815 0A11.5 11.5 0 0 1 21.49 5.893a5.055 5.055 0 0 1-1.755 3.829A5.918 5.918 0 0 1 16 11a6.408 6.408 0 0 0-4.3 1.449 11.461 11.461 0 0 0-3.11 5.038A2.454 2.454 0 0 1 6.767 19.2z" style="fill:#171a1a;fill-rule:evenodd"/>
</svg>
