<svg xmlns="http://www.w3.org/2000/svg" width="24" height="24" viewBox="0 0 24 24">
    <path d="M10.3 4.251a2.239 2.239 0 0 1 4.018 0l1.972 4 4.41.649a2.246 2.246 0 0 1 1.242 3.829l-3.191 3.117.753 4.4a2.241 2.241 0 0 1-3.251 2.367l-3.945-2.078-3.94 2.077a2.241 2.241 0 0 1-3.251-2.367l.753-4.4-3.191-3.118A2.246 2.246 0 0 1 3.921 8.9l4.41-.642zm3.981 5-1.972-4-1.972 4a2.241 2.241 0 0 1-1.687 1.228l-4.41.642 3.191 3.117a2.248 2.248 0 0 1 .644 1.987l-.753 4.4 3.945-2.078a2.237 2.237 0 0 1 2.085 0l3.948 2.078-.753-4.4a2.248 2.248 0 0 1 .644-1.987l3.191-3.117-4.41-.642a2.241 2.241 0 0 1-1.687-1.23z" transform="translate(-.5 -.75)" style="fill-rule:evenodd;fill:#2f3333"/>
</svg>
