<svg xmlns="http://www.w3.org/2000/svg" width="20" height="20" viewBox="0 0 20 20">
    <path data-name="패스 4315" d="M10.1 3.526a.935.935 0 0 1 1.682 0l1.881 3.837a.938.938 0 0 0 .706.516l4.206.615a.946.946 0 0 1 .52 1.61l-3.043 2.986a.948.948 0 0 0-.27.836l.718 4.217a.939.939 0 0 1-1.361 1l-3.762-1.991a.933.933 0 0 0-.873 0L6.74 19.139a.939.939 0 0 1-1.361-1l.721-4.212a.948.948 0 0 0-.27-.836l-3.046-2.986a.946.946 0 0 1 .52-1.61l4.206-.616a.938.938 0 0 0 .706-.516z" transform="translate(-.938 -1.125)" style="fill:#d0d9d9"/>
</svg>
