<svg xmlns="http://www.w3.org/2000/svg" width="32" height="32" viewBox="0 0 32 32">
    <g data-name="home">
        <path data-name="패스 4345" d="M15.5 3 5 12v12a4 4 0 0 0 4 4h14a4 4 0 0 0 4-4V12z" style="fill:#fff"/>
        <path data-name="합치기 95" d="M-1873.5 5571.5a4 4 0 0 1-4-4v-10.649l-1.082.836a1.5 1.5 0 0 1-2.1-.27 1.5 1.5 0 0 1 .27-2.1l14.237-11a1.5 1.5 0 0 1 1.854.015l13.763 11a1.5 1.5 0 0 1 .235 2.109 1.5 1.5 0 0 1-2.109.235l-1.064-.851v10.675a4 4 0 0 1-4 4zm-1-4a1 1 0 0 0 1 1h16a1 1 0 0 0 1-1v-13.076l-8.778-7.016-9.221 7.124z" transform="translate(1881.5 -5542.5)" style="fill:#171a1a"/>
    </g>
</svg>
