<svg xmlns="http://www.w3.org/2000/svg" width="24" height="24" viewBox="0 0 24 24">
    <g data-name="Ico / Function / phone" transform="translate(0 8)">
        <path data-name="사각형 11268" d="M3.75 2.25a1.5 1.5 0 0 0-1.5 1.5v15a1.5 1.5 0 0 0 1.5 1.5h10.5a1.5 1.5 0 0 0 1.5-1.5v-15a1.5 1.5 0 0 0-1.5-1.5H3.75m0-2.25h10.5A3.75 3.75 0 0 1 18 3.75v15a3.75 3.75 0 0 1-3.75 3.75H3.75A3.75 3.75 0 0 1 0 18.75v-15A3.75 3.75 0 0 1 3.75 0z" transform="translate(3 -7.25)" style="fill:#2f3333"/>
        <circle data-name="타원 238" cx="1.75" cy="1.75" r="1.75" transform="translate(10.5 7)" style="fill:#2f3333"/>
    </g>
</svg>
