<svg xmlns="http://www.w3.org/2000/svg" width="24" height="24" viewBox="0 0 24 24">
    <g data-name="Ico / Function / pc">
        <path data-name="패스 7955" d="M16.75 16.719H14.5v-3.906h2.25z" transform="translate(-3.25 3.922)" style="fill:#2f3333"/>
        <path data-name="패스 7956" d="M12.266 19.282H3.924a1.125 1.125 0 0 1 0-2.25h8.342a1.125 1.125 0 1 1 0 2.25z" transform="translate(4.255 3.233)" style="fill:#2f3333"/>
        <path data-name="사각형 11267" d="M3 2.25a.751.751 0 0 0-.75.75v8.25A.751.751 0 0 0 3 12h15a.751.751 0 0 0 .75-.75V3a.751.751 0 0 0-.75-.75H3M3 0h15a3 3 0 0 1 3 3v8.25a3 3 0 0 1-3 3H3a3 3 0 0 1-3-3V3a3 3 0 0 1 3-3z" style="fill:#2f3333" transform="translate(1.5 3)"/>
    </g>
</svg>
