<svg xmlns="http://www.w3.org/2000/svg" width="20" height="20" viewBox="0 0 20 20">
    <defs>
        <linearGradient id="1nqza38vqb" x1="-.221" y1=".22" x2="1.159" y2=".861" gradientUnits="objectBoundingBox">
            <stop offset="0" stop-color="#ffb045"/>
            <stop offset="1" stop-color="#ff4c0a"/>
        </linearGradient>
        <linearGradient id="6u5mjqw82c" x1=".043" x2=".785" y2="1" gradientUnits="objectBoundingBox">
            <stop offset="0" stop-color="#fff" stop-opacity=".443"/>
            <stop offset="1" stop-color="#fff" stop-opacity=".835"/>
        </linearGradient>
        <linearGradient id="13zbw0mq1d" x2=".765" y2="1" gradientUnits="objectBoundingBox">
            <stop offset="0" stop-color="#fff" stop-opacity=".698"/>
            <stop offset=".522" stop-color="#fff"/>
            <stop offset="1" stop-color="#fff" stop-opacity=".416"/>
        </linearGradient>
        <clipPath id="ldcuxrrgxa">
            <path data-name="사각형 10794" transform="translate(23 278)" style="fill:#fff;stroke:#707070" d="M0 0h20v20H0z"/>
        </clipPath>
    </defs>
    <g transform="translate(-.625 -.625)" data-name="ico / 20pt / login" style="clip-path:url(#ldcuxrrgxa)">
        <path transform="translate(1.785 1.679)" style="fill:none" d="M0 0h18.84v18.84H0z"/>
        <rect data-name="사각형 10648" width="13.75" height="13.75" rx="3" transform="rotate(30 3.437 12.829)" style="opacity:.8;fill:url(#1nqza38vqb)"/>
        <rect data-name="사각형 10649" width="13.75" height="13.75" rx="3" transform="translate(5.625 5.625)" style="fill:#ffe3be"/>
        <path data-name="패스 4186" d="M1018.9 443.24h-9.159a.627.627 0 0 1 0-1.25h9.159a.627.627 0 0 1 0 1.25z" transform="translate(-1001.663 -431.99)" style="fill:url(#6u5mjqw82c)"/>
        <g data-name="그룹 15661">
            <path data-name="패스 4188" d="M1015.873 434.176a.655.655 0 0 1-.625-.681v-1.763a.627.627 0 1 1 1.25 0v1.763a.655.655 0 0 1-.625.681z" transform="translate(-1007.123 -426.676)" style="fill:url(#13zbw0mq1d)"/>
            <path data-name="패스 4188" d="M1015.873 434.176a.655.655 0 0 1-.625-.681v-1.763a.627.627 0 1 1 1.25 0v1.763a.655.655 0 0 1-.625.681z" transform="translate(-999.623 -426.676)" style="fill:url(#13zbw0mq1d)"/>
        </g>
    </g>
</svg>
