<svg xmlns="http://www.w3.org/2000/svg" width="32" height="24" viewBox="0 0 32 24">
    <defs>
        <clipPath id="t558fnmlza">
            <rect data-name="사각형 10838" width="32" height="24" rx="4" style="fill:#fff"/>
        </clipPath>
        <clipPath id="1dozz65fab">
            <path data-name="사각형 10851" style="fill:#fff" d="M0 0h38.667v26.667H0z"/>
        </clipPath>
    </defs>
    <g style="clip-path:url(#t558fnmlza)">
        <g transform="translate(-2.667 -1.333)" style="clip-path:url(#1dozz65fab)" data-name="Ico / flag / kor_large">
            <rect data-name="사각형 10850" width="38.667" height="26.667" rx="2" style="fill:#fff"/>
            <path data-name="패스 4272" d="M20.45 9.16a6.559 6.559 0 0 1-13.117 0c0-2.061 4.4-2.925 8.11-2.6A4.976 4.976 0 0 1 16.7 6.4c2.073 0 3.75 1.236 3.75 2.76z" transform="translate(4.815 4.385)" style="fill-rule:evenodd;fill:#232c80"/>
            <path data-name="패스 4273" d="M12.955 9.786a5.87 5.87 0 0 1 3.745-1.84c2.071 0 3.748 1.236 3.748 2.76a6.5 6.5 0 0 0-6.558-6.439A6.566 6.566 0 0 0 7.963 7.95a7.692 7.692 0 0 0-.63 2.756 3.592 3.592 0 0 0 2.811.92 2.828 2.828 0 0 0 2.095-.92z" transform="translate(4.815 2.839)" style="fill:#f93939;fill-rule:evenodd"/>
            <path data-name="패스 4274" d="M24.8 6.88h3.75L24.8 3.2h-1.871zm-16.865 0H4.19L7.938 3.2h1.874zm16.865 9.2h3.75l-3.75 3.678h-1.871zm-16.865 0H4.19l3.748 3.679h1.874z" transform="translate(2.336 2.066)" style="fill:#151515;fill-rule:evenodd"/>
        </g>
    </g>
</svg>
