<svg xmlns="http://www.w3.org/2000/svg" width="24" height="24" viewBox="0 0 24 24">
    <path d="M24 24H0V0h24v24zM14.454 1a.731.731 0 0 0-.584.3L4.232 13.776a1.109 1.109 0 0 0-.115 1.175 1.018 1.018 0 0 0 .925.59h5.368a.51.51 0 0 1 .393.188.555.555 0 0 1 .116.459l-1.194 6.359a.8.8 0 0 0 .162.669.786.786 0 0 0 .6.285.731.731 0 0 0 .593-.312l9.2-12.406a1.113 1.113 0 0 0 .1-1.169 1.018 1.018 0 0 0-.919-.579h-5.02a.51.51 0 0 1-.395-.19.556.556 0 0 1-.114-.464l1.282-6.416a.8.8 0 0 0-.158-.674.786.786 0 0 0-.602-.291z" style="fill:#30bfba"/>
</svg>
