<svg xmlns="http://www.w3.org/2000/svg" width="20" height="20" viewBox="0 0 20 20">
    <path d="M18960.563 5590.188c-1.746-.691-2.562-2.082-2.562-4.378a8.486 8.486 0 0 1 2.025-5 16.69 16.69 0 0 1 1.994-2.15.938.938 0 0 1 .5-1.578l-1.021-2.82a.94.94 0 0 1 .881-1.26h8.748a.938.938 0 0 1 .879 1.26l-1.016 2.819a.9.9 0 0 1 .223.073l.012.005.016.008.027.014a.971.971 0 0 1 .2.148 1.5 1.5 0 0 0 1.129.365 3.382 3.382 0 0 1 2.6.863.939.939 0 0 1 .307.67v.044a.932.932 0 0 1-.248.611.914.914 0 0 1-.656.3h-.062a.9.9 0 0 1-.6-.244 1.509 1.509 0 0 0-1.152-.384 3.441 3.441 0 0 1-.367.015 15.443 15.443 0 0 1 1.063 1.236 8.474 8.474 0 0 1 2.025 5c0 2.3-.816 3.687-2.564 4.378-1.584.622-3.82.622-6.186.622s-4.613.006-6.195-.617zm.949-8.237a6.779 6.779 0 0 0-1.637 3.859 3.756 3.756 0 0 0 .367 1.843 1.861 1.861 0 0 0 1.01.789 30.793 30.793 0 0 0 10.994 0 1.845 1.845 0 0 0 1.01-.789 3.689 3.689 0 0 0 .369-1.843 6.775 6.775 0 0 0-1.635-3.859 15.785 15.785 0 0 0-3.117-3.011h-4.244a15.868 15.868 0 0 0-3.117 3.011zm2.992-4.891h4.5l.789-2.186h-6.078z" transform="translate(-18956.752 -5572.062)" style="fill:#2f3333"/>
</svg>
