<svg xmlns="http://www.w3.org/2000/svg" width="32" height="32" viewBox="0 0 32 32">
    <path d="M18846 5666a5 5 0 0 1-5-5v-16a5 5 0 0 1 5-5h20a5 5 0 0 1 5 5v16a5 5 0 0 1-5 5zm-2-5a2 2 0 0 0 2 2h20a2 2 0 0 0 2-2v-9.733l-11.344 4.14a1.557 1.557 0 0 1-.531.09 1.121 1.121 0 0 1-.127 0 .989.989 0 0 1-.123 0 1.573 1.573 0 0 1-.531-.09l-11.342-4.14zm.023-12.906 11.973 4.381 11.977-4.381.025-.008V5645a2 2 0 0 0-2-2h-20a2 2 0 0 0-2 2v3.084z" transform="translate(-18840 -5637)" style="fill:#171a1a"/>
</svg>
