<svg xmlns="http://www.w3.org/2000/svg" width="32" height="32" viewBox="0 0 32 32">
    <path data-name="빼기 3" d="M18972 6069h-20a5.007 5.007 0 0 1-5-5v-16a5.007 5.007 0 0 1 5-5h20a5.007 5.007 0 0 1 5 5v16a5.007 5.007 0 0 1-5 5zm-10-10.506h.128a1.521 1.521 0 0 0 .527-.09l9.34-3.51a1.541 1.541 0 0 0 .861-.78 1.465 1.465 0 0 0 .053-1.144 1.485 1.485 0 0 0-1.4-.976 1.532 1.532 0 0 0-.529.095l-8.977 3.382-8.973-3.382a1.532 1.532 0 0 0-.529-.095 1.485 1.485 0 0 0-1.4.976 1.512 1.512 0 0 0 .914 1.924l9.34 3.51a1.5 1.5 0 0 0 .529.09h.063z" transform="translate(-18946 -6040)" style="fill:#171a1a"/>
</svg>
