<svg xmlns="http://www.w3.org/2000/svg" width="32" height="32" viewBox="0 0 32 32">
    <path d="M18957 5653.9a14 14 0 0 1 28 0c0 9.6-11.748 17.1-14 17.1s-14-7.5-14-17.1zm6.217-7.7a10.476 10.476 0 0 0-1.857 12.717 19.391 19.391 0 0 0 3.449 4.555 25.383 25.383 0 0 0 4.045 3.292 13.533 13.533 0 0 0 2.145 1.167 13.26 13.26 0 0 0 2.148-1.167 25.383 25.383 0 0 0 4.045-3.292 19.391 19.391 0 0 0 3.449-4.555 10.476 10.476 0 0 0-1.857-12.717 11.073 11.073 0 0 0-15.566 0zm4.783 7.3a3 3 0 1 1 3 3 3 3 0 0 1-3-3z" transform="translate(-18955 -5639.5)" style="fill:#171a1a"/>
</svg>
