<svg xmlns="http://www.w3.org/2000/svg" width="32" height="32" viewBox="0 0 32 32">
    <path d="M823 1737a2 2 0 0 1-2-2v-7a2 2 0 0 1 2-2h7a2 2 0 0 1 2 2v7a2 2 0 0 1-2 2zm-14 0a2 2 0 0 1-2-2v-7a2 2 0 0 1 2-2h7a2 2 0 0 1 2 2v7a2 2 0 0 1-2 2zm14-14a2 2 0 0 1-2-2v-7a2 2 0 0 1 2-2h7a2 2 0 0 1 2 2v7a2 2 0 0 1-2 2zm-14 0a2 2 0 0 1-2-2v-7a2 2 0 0 1 2-2h7a2 2 0 0 1 2 2v7a2 2 0 0 1-2 2z" transform="translate(-803 -1708)" style="fill:#fff"/>
    <path d="M829 1734v-5h-5v5h5m-14 0v-5h-5v5h5m14-14v-5h-5v5h5m-14 0v-5h-5v5h5m15 17h-7a2 2 0 0 1-2-2v-7a2 2 0 0 1 2-2h7a2 2 0 0 1 2 2v7a2 2 0 0 1-2 2zm-14 0h-7a2 2 0 0 1-2-2v-7a2 2 0 0 1 2-2h7a2 2 0 0 1 2 2v7a2 2 0 0 1-2 2zm14-14h-7a2 2 0 0 1-2-2v-7a2 2 0 0 1 2-2h7a2 2 0 0 1 2 2v7a2 2 0 0 1-2 2zm-14 0h-7a2 2 0 0 1-2-2v-7a2 2 0 0 1 2-2h7a2 2 0 0 1 2 2v7a2 2 0 0 1-2 2z" transform="translate(-803 -1708)" style="fill:#171a1a"/>
</svg>
