<svg xmlns="http://www.w3.org/2000/svg" width="20" height="20" viewBox="0 0 20 20">
    <path d="M19020.564 6071.251a.938.938 0 0 1 0-1.876h14.373a.938.938 0 0 1 0 1.876zm1.563-3.125A3.123 3.123 0 0 1 19019 6065v-6.875a3.123 3.123 0 0 1 3.125-3.125h11.252a3.126 3.126 0 0 1 3.125 3.125V6065a3.127 3.127 0 0 1-3.125 3.125zm-1.248-10V6065a1.251 1.251 0 0 0 1.248 1.252h11.252a1.252 1.252 0 0 0 1.248-1.252v-6.875a1.249 1.249 0 0 0-1.248-1.249h-11.252al.248 1.248 0 0 0-1.248 1.25z" transform="translate(-19017.75 -6053.125)" style="fill:#2f3333"/>
</svg>
