<svg xmlns="http://www.w3.org/2000/svg" width="20" height="20" viewBox="0 0 20 20">
    <path data-name="패스 7956" d="M17953.125 5668.622a3.13 3.13 0 0 1-3.125-3.125v-9.372a3.131 3.131 0 0 1 3.125-3.127h12.5a3.129 3.129 0 0 1 3.125 3.127v9.372a3.129 3.129 0 0 1-3.125 3.125zm-1.25-12.5v9.372a1.25 1.25 0 0 0 1.25 1.249h12.5a1.249 1.249 0 0 0 1.25-1.249v-9.372a1.253 1.253 0 0 0-1.25-1.252h-12.5a1.255 1.255 0 0 0-1.25 1.255zm8.4 8.164-1.873-1.879a.935.935 0 0 1 1.32-1.325l1.213 1.211 2.463-2.46a.938.938 0 0 1 1.328 1.325l-3.131 3.128a.91.91 0 0 1-.66.271.919.919 0 0 1-.656-.268z" transform="translate(-17949.377 -5650.499)" style="fill:#2f3333"/>
</svg>
