<svg xmlns="http://www.w3.org/2000/svg" width="20" height="20" viewBox="0 0 20 20">
    <path d="M19028.375 6071.625a25.559 25.559 0 0 0 5.41-.486 1.141 1.141 0 1 0 0-1.528 30.377 30.377 0 0 0-10.822 0 1.142 1.142 0 1 0 0 1.528 25.54 25.54 0 0 0 5.412.486m0-6.875a3.438 3.438 0 1 0-3.437-3.437 3.442 3.442 0 0 0 3.438 3.438m0 8.75c-5.18 0-9.377-.937-9.377-3.125s4.2-3.125 9.377-3.125 9.375.938 9.375 3.125-4.2 3.124-9.376 3.124zm0-6.875a5.313 5.313 0 1 1 5.313-5.312 5.311 5.311 0 0 1-5.314 5.311z" transform="translate(-19018.375 -6054.75)" style="fill:#30bfba"/>
</svg>
