<svg xmlns="http://www.w3.org/2000/svg" width="32" height="32" viewBox="0 0 32 32">
    <path data-name="패스 4402" d="M28.983 14.622a1.457 1.457 0 0 0 .017-.177 1.56 1.56 0 0 0-.027-.277 14.488 14.488 0 1 0-14.739 14.807 1.485 1.485 0 0 0 .244.025 1.611 1.611 0 0 0 .21-.021 14.5 14.5 0 0 0 14.3-14.357M15.994 25.845v-4.422a1.517 1.517 0 1 0-3.034 0v4.417a11.47 11.47 0 0 1-9.823-9.878H7.6a1.517 1.517 0 0 0 0-3.034H3.153a11.469 11.469 0 0 1 9.808-9.78V7.6a1.517 1.517 0 1 0 3.034 0V3.143a11.469 11.469 0 0 1 9.841 9.785h-4.413a1.517 1.517 0 1 0 0 3.034h4.427a11.469 11.469 0 0 1-9.856 9.883" transform="translate(1.5 1.5)" style="fill:#171a1a"/>
</svg>
