<svg xmlns="http://www.w3.org/2000/svg" width="32" height="32" viewBox="0 0 32 32">
    <path d="M3 9.19A4.1 4.1 0 0 1 7 5h18a4.1 4.1 0 0 1 4 4.19v13.619A4.1 4.1 0 0 1 25 27H7a4.1 4.1 0 0 1-4-4.191z" style="fill:#fff"/>
    <path data-name="패스 4334" d="M8.5 20a1.5 1.5 0 0 0 0 3h3a1.5 1.5 0 0 0 0-3z" style="fill:#171a1a"/>
    <path data-name="패스 4335" d="M1.5 9A5.5 5.5 0 0 1 7 3.5h18A5.5 5.5 0 0 1 30.5 9v14a5.5 5.5 0 0 1-5.5 5.5H7A5.5 5.5 0 0 1 1.5 23zM7 6.5A2.5 2.5 0 0 0 4.5 9v2h23V9A2.5 2.5 0 0 0 25 6.5zM4.5 23v-9h23v9a2.5 2.5 0 0 1-2.5 2.5H7A2.5 2.5 0 0 1 4.5 23z" style="fill-rule:evenodd;fill:#171a1a"/>
</svg>
