<svg xmlns="http://www.w3.org/2000/svg" width="20" height="20" viewBox="0 0 20 20">
    <path d="M19061 6079a11.045 11.045 0 0 1-7.07-2.886c-1.723-1.511-2.93-3.409-2.93-4.615s1.207-3.1 2.93-4.617a10.108 10.108 0 0 1 14.141 0c1.723 1.513 2.93 3.411 2.93 4.617s-1.207 3.1-2.93 4.615A11.045 11.045 0 0 1 19061 6079zm0-13.126a9.162 9.162 0 0 0-5.8 2.395 9.782 9.782 0 0 0-1.8 2.041 3.049 3.049 0 0 0-.523 1.189 2.947 2.947 0 0 0 .523 1.188 9.677 9.677 0 0 0 1.8 2.042 8.233 8.233 0 0 0 11.609 0 9.615 9.615 0 0 0 1.795-2.042 2.976 2.976 0 0 0 .525-1.187 3.024 3.024 0 0 0-.525-1.189 9.627 9.627 0 0 0-1.795-2.041 9.162 9.162 0 0 0-5.809-2.395zm0 10a4.376 4.376 0 1 1 4.375-4.376 4.381 4.381 0 0 1-4.375 4.377zm-1.562-6.876a.938.938 0 1 0 .938.938.938.938 0 0 0-.938-.936z" transform="translate(-19051 -6061.498)" style="fill:#9ca6a6"/>
</svg>
