<svg xmlns="http://www.w3.org/2000/svg" width="20" height="20" viewBox="0 0 20 20">
    <path d="M19022.686 6063.159a.937.937 0 0 1-.344-1.279l1.123-1.943a12.6 12.6 0 0 1-2.535-1.735c-1.725-1.509-2.93-3.409-2.93-4.617s1.205-3.1 2.93-4.616a11.058 11.058 0 0 1 7.07-2.884 9.433 9.433 0 0 1 3.145.551l1.512-2.619a.937.937 0 1 1 1.623.938l-10.311 17.862a.939.939 0 0 1-1.283.341zm-.492-12.8a9.757 9.757 0 0 0-1.8 2.044 3.025 3.025 0 0 0-.521 1.186 2.958 2.958 0 0 0 .521 1.189 9.8 9.8 0 0 0 1.8 2.041 10.658 10.658 0 0 0 2.211 1.495l.787-1.366a4.48 4.48 0 0 1-.791-.87 4.377 4.377 0 0 1 5.1-6.6l.684-1.18a7.5 7.5 0 0 0-2.187-.335 9.164 9.164 0 0 0-5.805 2.391zm3.307 1.667a.938.938 0 1 0 .936-.935.938.938 0 0 0-.937.93zm1.135 8.965 1.029-1.781c.117 0 .227.006.336.006a9.18 9.18 0 0 0 5.807-2.4 9.728 9.728 0 0 0 1.793-2.041 2.946 2.946 0 0 0 .523-1.189 2.979 2.979 0 0 0-.523-1.186 9.879 9.879 0 0 0-1.793-2.044c-.229-.2-.469-.389-.709-.564l.941-1.632a12.989 12.989 0 0 1 1.029.81c1.727 1.512 2.932 3.41 2.932 4.616s-1.205 3.108-2.932 4.617a11.039 11.039 0 0 1-7.068 2.887 9.2 9.2 0 0 1-1.366-.104z" transform="translate(-19018 -6043.548)" style="fill:#9ca6a6"/>
</svg>
