<svg xmlns="http://www.w3.org/2000/svg" width="20" height="20" viewBox="0 0 20 20">
    <path d="M1.6 13.945a.938.938 0 1 1 1.578-1.013 7.188 7.188 0 1 0 0-7.739A.938.938 0 1 1 1.6 4.18a9.058 9.058 0 1 1 14.038 11.289A9.051 9.051 0 0 1 1.6 13.945zm4.921-1.093a.945.945 0 0 1 0-1.329L8.053 10H.938a.938.938 0 0 1 0-1.877h7.115L6.525 6.6a.938.938 0 0 1 1.327-1.324L10.978 8.4a.933.933 0 0 1 0 1.324l-3.126 3.128a.926.926 0 0 1-.663.272.935.935 0 0 1-.664-.272z" transform="translate(.936 .938)" style="fill:#2f3333"/>
</svg>
