<svg xmlns="http://www.w3.org/2000/svg" width="32" height="32" viewBox="0 0 32 32">
    <path d="M18569.664 5745.929a2.08 2.08 0 0 0-2.449-1.409 5.049 5.049 0 0 1-4.838-8.36 2.054 2.054 0 0 0 0-2.818 5.049 5.049 0 0 1 4.838-8.36 2.08 2.08 0 0 0 2.449-1.409 5.059 5.059 0 0 1 9.672 0 2.077 2.077 0 0 0 2.449 1.409 5.049 5.049 0 0 1 4.838 8.36 2.054 2.054 0 0 0 0 2.818 5.049 5.049 0 0 1-4.838 8.36 2.077 2.077 0 0 0-2.449 1.409 5.059 5.059 0 0 1-9.672 0zm2.855-.873a2.072 2.072 0 0 0 3.961 0 5.068 5.068 0 0 1 5.977-3.443 2.064 2.064 0 0 0 1.979-3.419 5.044 5.044 0 0 1 0-6.886 2.068 2.068 0 0 0-1.979-3.425 5.06 5.06 0 0 1-5.977-3.438 2.072 2.072 0 0 0-3.961 0 5.06 5.06 0 0 1-5.977 3.438 2.068 2.068 0 0 0-1.979 3.425 5.044 5.044 0 0 1 0 6.886 2.064 2.064 0 0 0 1.979 3.419 5.066 5.066 0 0 1 5.977 3.443zm-3-10.311a4.979 4.979 0 1 1 4.979 4.968 4.982 4.982 0 0 1-4.975-4.967zm2.986 0a1.992 1.992 0 1 0 1.988-1.987 1.989 1.989 0 0 0-1.983 1.992z" transform="translate(-18558.5 -5718.5)" style="fill:#171a1a"/>
</svg>
