<svg xmlns="http://www.w3.org/2000/svg" width="24" height="24" viewBox="0 0 24 24">
    <path d="M19021.2 6077.68a1.123 1.123 0 1 1 .609-2.162l.037.009-2.672-6.876c-.006-.018-.01-.036-.018-.054a3.062 3.062 0 0 1 .184-2.37 3.224 3.224 0 0 1 1.9-1.6l1.887-.6v-2.322a3.712 3.712 0 0 1 3.709-3.708h7.574a3.717 3.717 0 0 1 3.715 3.708V6064.063l1.887.6a3.159 3.159 0 0 1 2.141 3.787.516.516 0 0 1-.014.05l-2.166 6.981c.113.042.182.07.2.079a1.121 1.121 0 1 1-.848 2.076c-.055-.018-4.687-1.868-8.332-.348a13.687 13.687 0 0 1-5.238.958 18.374 18.374 0 0 1-4.555-.566zm8.674-2.363v-5.717a1.127 1.127 0 0 1 2.254 0v5.027a14.593 14.593 0 0 1 5.684.218l2.164-6.988a.9.9 0 0 0-.648-1.058l-6.637-2.112a7.072 7.072 0 0 0-4.242 0l-6.523 2.076a.969.969 0 0 0-.58.48.812.812 0 0 0-.057.62l3.131 8.069a12.713 12.713 0 0 0 5.453-.615zm3.5-12.765 2.506.8v-1.644a1.467 1.467 0 0 0-1.467-1.46h-7.574a1.464 1.464 0 0 0-1.463 1.46v1.607l2.393-.761a9.345 9.345 0 0 1 5.605 0z" transform="translate(-19018.625 -6056.123)" style="fill:#3db5ef"/>
</svg>
