<svg xmlns="http://www.w3.org/2000/svg" width="20" height="20" viewBox="0 0 20 20">
    <path d="M19020.834 6074.4a.936.936 0 1 1 .508-1.8l.029.007-2.227-5.73c-.006-.015-.008-.03-.014-.045a2.547 2.547 0 0 1 .152-1.975 2.679 2.679 0 0 1 1.584-1.333l1.57-.5v-1.935a3.1 3.1 0 0 1 3.094-3.09h6.311a3.1 3.1 0 0 1 3.1 3.09v1.962l1.57.5a2.633 2.633 0 0 1 1.785 3.155.172.172 0 0 1-.014.042l-1.8 5.818c.094.034.15.058.17.065a.935.935 0 1 1-.709 1.73c-.045-.015-3.906-1.557-6.941-.29a11.409 11.409 0 0 1-4.365.8 15.374 15.374 0 0 1-3.803-.471zm7.229-1.97v-4.76a.938.938 0 0 1 1.875 0v4.188a12.158 12.158 0 0 1 4.738.183l1.8-5.823a.751.751 0 0 0-.543-.882l-5.531-1.76a5.892 5.892 0 0 0-3.535 0l-5.434 1.729a.818.818 0 0 0-.484.4.688.688 0 0 0-.047.518l2.609 6.725a10.614 10.614 0 0 0 4.552-.517zm2.912-10.638 2.088.665v-1.37a1.22 1.22 0 0 0-1.221-1.216h-6.311a1.22 1.22 0 0 0-1.219 1.216v1.339l1.992-.634a7.785 7.785 0 0 1 4.67 0z" transform="translate(-19018.688 -6056.436)" style="fill:#2f3333"/>
</svg>
