<svg xmlns="http://www.w3.org/2000/svg" width="32" height="32" viewBox="0 0 32 32">
    <path d="M18516.5 5669a14.5 14.5 0 1 1 10.252-4.245 14.405 14.405 0 0 1-10.252 4.245zm-5.094-12.5a.859.859 0 0 0-.717.414 1.224 1.224 0 0 0-.088 1.144 5.464 5.464 0 0 0 1.8 2.272 7.758 7.758 0 0 0 8.193 0 5.464 5.464 0 0 0 1.8-2.272 1.226 1.226 0 0 0-.086-1.146.86.86 0 0 0-.719-.412zm10.594-6a1.5 1.5 0 1 0 1.5 1.5 1.5 1.5 0 0 0-1.5-1.5zm-11 0a1.5 1.5 0 1 0 1.5 1.5 1.5 1.5 0 0 0-1.5-1.5z" transform="translate(-18500.5 -5638.5)" style="fill:#171a1a"/>
</svg>
