<svg xmlns="http://www.w3.org/2000/svg" width="28" height="28" viewBox="0 0 28 28">
    <defs>
        <linearGradient id="rz69ob85ia" x1=".159" y1=".117" x2=".921" y2=".892" gradientUnits="objectBoundingBox">
            <stop offset="0" stop-color="#29c1a4"/>
            <stop offset="1" stop-color="#00b1c3"/>
        </linearGradient>
    </defs>
    <path d="M18514.684 5665.371a12.687 12.687 0 1 1 8.969-3.713 12.61 12.61 0 0 1-8.969 3.713zm-4.455-10.933a.749.749 0 0 0-.629.361 1.062 1.062 0 0 0-.076 1 4.738 4.738 0 0 0 1.578 1.989 6.781 6.781 0 0 0 7.166 0 4.78 4.78 0 0 0 1.576-1.989 1.064 1.064 0 0 0-.076-1 .752.752 0 0 0-.627-.36zm9.268-5.256a1.313 1.313 0 1 0 1.311 1.315 1.315 1.315 0 0 0-1.308-1.314zm-9.625 0a1.313 1.313 0 1 0 1.313 1.315 1.317 1.317 0 0 0-1.314-1.314z" transform="translate(-18500.684 -5638.686)" style="opacity:.8;fill:url(#rz69ob85ia)"/>
</svg>
