<svg xmlns="http://www.w3.org/2000/svg" width="20" height="20" viewBox="0 0 20 20">
    <path data-name="패스 7961" d="M18009.125 5669.25a3.126 3.126 0 0 1-3.125-3.126v-10a3.123 3.123 0 0 1 3.125-3.125h12.5a3.123 3.123 0 0 1 3.125 3.125v10a3.126 3.126 0 0 1-3.125 3.126zm-1.25-13.125v10a1.252 1.252 0 0 0 1.25 1.25h12.5a1.252 1.252 0 0 0 1.25-1.25v-10a1.252 1.252 0 0 0-1.25-1.25h-12.5a1.252 1.252 0 0 0-1.25 1.25zm10 7.812a1.563 1.563 0 1 1 1.563 1.562 1.562 1.562 0 0 1-1.563-1.562zm-7.189-1.564a.938.938 0 0 1 0-1.876h3.752a.938.938 0 0 1 0 1.876zm0-3.123a.939.939 0 0 1 0-1.879h7.5a.939.939 0 0 1 0 1.879z" transform="translate(-18005.375 -5651.124)" style="fill:#2f3333"/>
</svg>
