<svg xmlns="http://www.w3.org/2000/svg" width="32" height="32" viewBox="0 0 32 32">
    <path data-name="패스 4399" d="M14.5 3a11.5 11.5 0 0 0-8.132 19.632A11.5 11.5 0 0 0 22.632 6.368 11.425 11.425 0 0 0 14.5 3m0-3A14.5 14.5 0 1 1 0 14.5 14.5 14.5 0 0 1 14.5 0z" transform="translate(1.5 1.5)" style="fill:#171a1a"/>
    <path data-name="패스 4399" d="M716.018 880.072a1.493 1.493 0 0 1-.761-.209l-3.618-2.137a1.5 1.5 0 0 1-.737-1.292v-4.2a1.5 1.5 0 0 1 3 0v3.345l2.88 1.7a1.5 1.5 0 0 1-.764 2.792z" transform="translate(-697 -860)" style="fill:#171a1a"/>
</svg>
