<svg xmlns="http://www.w3.org/2000/svg" width="16" height="16" viewBox="0 0 16 16">
    <path data-name="패스 4399" d="M7.25 1.5a5.75 5.75 0 0 0-4.066 9.816 5.75 5.75 0 0 0 8.132-8.132A5.712 5.712 0 0 0 7.25 1.5m0-1.5A7.25 7.25 0 1 1 0 7.25 7.25 7.25 0 0 1 7.25 0z" transform="translate(.75 .75)" style="fill:#7d8585"/>
    <path data-name="패스 4399" d="M713.46 875.4a.746.746 0 0 1-.381-.1l-1.809-1.068a.75.75 0 0 1-.369-.646v-2.1a.75.75 0 0 1 1.5 0v1.672l1.44.851a.75.75 0 0 1-.382 1.4z" transform="translate(-703.951 -865.367)" style="fill:#7d8585"/>
</svg>
