<svg xmlns="http://www.w3.org/2000/svg" width="20" height="20" viewBox="0 0 20 20">
    <circle data-name="타원 170" cx="8.75" cy="8.75" r="8.75" transform="translate(1.25 1.25)" style="fill:#d0d9d9"/>
    <path data-name="패스 4340" d="M14.653 14.732a.777.777 0 0 1-.777.777h-.222a.777.777 0 0 1-.777-.777 2.889 2.889 0 0 1 1.258-2.625c.584-.37 1.03-.788 1.03-1.415a1.1 1.1 0 0 0-1.177-1.1 1.222 1.222 0 0 0-.985.466c-.267.351-.6.736-1.039.736a.856.856 0 0 1-.91-1.094A2.96 2.96 0 0 1 14 8c1.875 0 3.2.973 3.2 2.63a2.6 2.6 0 0 1-1.458 2.341 1.768 1.768 0 0 0-1.089 1.761z" transform="translate(-4.125 -3)" style="fill:#fff"/>
    <path data-name="패스 4341" d="M14.946 23.146a.938.938 0 1 0-.937-.937.937.937 0 0 0 .937.937z" transform="translate(-5.253 -7.977)" style="fill:#fff"/>
</svg>
