<svg xmlns="http://www.w3.org/2000/svg" width="32" height="32" viewBox="0 0 32 32">
    <path d="M18910.467 5667a13.5 13.5 0 1 1 6.59-25.282 13.406 13.406 0 0 1 1.42.921 1.5 1.5 0 1 1-1.785 2.413 10.065 10.065 0 0 0-1.111-.722 10.464 10.464 0 0 0-15.581 9.17 10.459 10.459 0 0 0 16.688 8.441 1.5 1.5 0 1 1 1.8 2.4 13.5 13.5 0 0 1-8 2.655zm10.471-7.439a1.506 1.506 0 0 1 0-2.124l2.441-2.437H18915a1.5 1.5 0 1 1 0-3h8.379l-2.441-2.437a1.5 1.5 0 0 1 2.123-2.123l5 5a1.493 1.493 0 0 1 0 2.119l-5 5a1.505 1.505 0 0 1-2.123 0z" transform="translate(-18896.5 -5637.5)" style="fill:#171a1a"/>
</svg>
