<svg xmlns="http://www.w3.org/2000/svg" width="20" height="20" viewBox="0 0 20 20">
    <path d="M18905.418 5656.875a8.438 8.438 0 1 1 4.117-15.8 8.331 8.331 0 0 1 .887.576.938.938 0 1 1-1.117 1.508 6.3 6.3 0 0 0-.693-.451 6.542 6.542 0 0 0-9.74 5.725 6.537 6.537 0 0 0 10.43 5.276.938.938 0 0 1 1.125 1.5 8.448 8.448 0 0 1-5 1.659zm6.543-4.649a.941.941 0 0 1 0-1.328l1.525-1.522h-5.236a.938.938 0 0 1 0-1.877h5.236l-1.525-1.523a.939.939 0 1 1 1.328-1.327l3.123 3.126a.934.934 0 0 1 0 1.324l-3.123 3.126a.942.942 0 0 1-1.328 0z" transform="rotate(180 9458.344 2829.219)" style="fill:#2f3333"/>
</svg>
