<svg xmlns="http://www.w3.org/2000/svg" width="32" height="32" viewBox="0 0 32 32">
    <rect width="28" height="28" rx="12" transform="translate(2 2)" style="fill:#fff"/>
    <path data-name="패스 4342" d="M17.5 11a1.5 1.5 0 0 0-3 0v3.5H11a1.5 1.5 0 0 0 0 3h3.5V21a1.5 1.5 0 0 0 3 0v-3.5H21a1.5 1.5 0 0 0 0-3h-3.5z" style="fill:#171a1a"/>
    <path data-name="패스 4343" d="M2 16a30.159 30.159 0 0 1 .1-3.566A12 12 0 0 1 12.434 2.1 30.159 30.159 0 0 1 16 2a30.159 30.159 0 0 1 3.566.1A12 12 0 0 1 29.9 12.434 30.148 30.148 0 0 1 30 16a30.147 30.147 0 0 1-.1 3.566A12 12 0 0 1 19.566 29.9 30.147 30.147 0 0 1 16 30a30.148 30.148 0 0 1-3.566-.1A12 12 0 0 1 2.1 19.566 30.159 30.159 0 0 1 2 16zm14 11a28.505 28.505 0 0 1-3.175-.077 9 9 0 0 1-7.748-7.748A28.5 28.5 0 0 1 5 16a28.5 28.5 0 0 1 .077-3.175 9 9 0 0 1 7.748-7.748A28.5 28.5 0 0 1 16 5a28.5 28.5 0 0 1 3.175.077 9 9 0 0 1 7.748 7.748A28.505 28.505 0 0 1 27 16a28.505 28.505 0 0 1-.077 3.175 9 9 0 0 1-7.748 7.748A28.505 28.505 0 0 1 16 27z" style="fill-rule:evenodd;fill:#171a1a"/>
</svg>
