<svg xmlns="http://www.w3.org/2000/svg" width="32" height="32" viewBox="0 0 32 32">
    <path d="M18807 5747.994h-11a6 6 0 0 1-6-5.992V5728h-.5a1.5 1.5 0 1 1 0-3h5.5v-1a4 4 0 0 1 4-3.995h5a4 4 0 0 1 4 3.995v1h5.5a1.5 1.5 0 0 1 0 3h-.5v14a6 6 0 0 1-6 5.994zm-14-20V5742a3 3 0 0 0 3 2.994h11a3 3 0 0 0 3-2.994v-14h-17zm6-5a1 1 0 0 0-1 1v1h7v-1a1 1 0 0 0-1-1zm5.5 18a1.5 1.5 0 0 1-1.5-1.5v-4a1.5 1.5 0 1 1 3 0v4a1.5 1.5 0 0 1-1.5 1.506zm-6 0a1.5 1.5 0 0 1-1.5-1.5v-4a1.5 1.5 0 1 1 3 0v4a1.5 1.5 0 0 1-1.5 1.506z" transform="translate(-18785.5 -5717.998)" style="fill:#171a1a"/>
</svg>
